{"title":"Aidra Fox - Super Cute 2","uid":11369763,"size":565036372,"categoryP":"porn","categoryS":"movie_clips","magnet":"?xt=urn:btih:463a0cf9a4cb90933a1a9aa73e268e0a55999e31&amp;dn=Aidra+Fox+-+Super+Cute+2&amp;tr=udp%3A%2F%2Ftracker.openbittorrent.com%3A80&amp;tr=udp%3A%2F%2Fopen.demonii.com%3A1337&amp;tr=udp%3A%2F%2Ftracker.coppersurfer.tk%3A6969&amp;tr=udp%3A%2F%2Fexodus.desync.com%3A6969","seeders":4,"leechers":0,"uploader":"athklym","files":-1,"time":1415074785,"description":" &lt;a href=&quot;http://bayimg.com/CacMaaAgK&quot; rel=&quot;nofollow&quot; target=&quot;_NEW&quot;&gt;http://bayimg.com/CacMaaAgK&lt;/a&gt;\nAidra_Fox_Super_Cute_2.mp4\nFormat                                   : MPEG-4\nFormat profile                           : Base Media\nCodec ID                                 : isom\nFile size                                : 539 MiB\nDuration                                 : 39mn 41s\nOverall bit rate mode                    : Variable\nOverall bit rate                         : 1 898 Kbps\nEncoded date                             : UTC 1970-01-01 00:00:00\nTagged date                              : UTC 1970-01-01 00:00:00\nWriting application                      : Lavf52.93.0\n\nVideo\nID                                       : 1\nFormat                                   : AVC\nFormat/Info                              : Advanced Video Codec\nFormat profile                           : &lt;a class=&quot;__cf_email__&quot; href=&quot;/cdn-cgi/l/email-protection&quot; data-cfemail=&quot;753d1c121d3539465b44&quot;&gt;[email&amp;#160;protected]&lt;/a&gt;&lt;script cf-hash='f9e31' type=&quot;text/javascript&quot;&gt;\n/* &lt;![CDATA[ */!function(){try{var t=&quot;currentScript&quot;in document?document.currentScript:function(){for(var t=document.getElementsByTagName(&quot;script&quot;),e=t.length;e--;)if(t[e].getAttribute(&quot;cf-hash&quot;))return t[e]}();if(t&amp;&amp;t.previousSibling){var e,r,n,i,c=t.previousSibling,a=c.getAttribute(&quot;data-cfemail&quot;);if(a){for(e=&quot;&quot;,r=parseInt(a.substr(0,2),16),n=2;a.length-n;n+=2)i=parseInt(a.substr(n,2),16)^r,e+=String.fromCharCode(i);e=document.createTextNode(e),c.parentNode.replaceChild(e,c)}}}catch(u){}}();/* ]]&gt; */&lt;/script&gt;\nFormat settings, CABAC                   : Yes\nFormat settings, ReFrames                : 4 frames\nCodec ID                                 : avc1\nCodec ID/Info                            : Advanced Video Coding\nDuration                                 : 39mn 41s\nBit rate                                 : 1 800 Kbps\nWidth                                    : 960 pixels\nHeight                                   : 544 pixels\nDisplay aspect ratio                     : 16:9\nFrame rate mode                          : Constant\nFrame rate                               : 29.970 fps\nColor space                              : YUV\nChroma subsampling                       : 4:2:0\nBit depth                                : 8 bits\nScan type                                : Progressive\nBits/(Pixel*Frame)                       : 0.115\nStream size                              : 508 MiB (94%)\nWriting library                          : x264 core 107\nEncoding settings                        : cabac=1 / ref=3 / deblock=1:0:0 / analyse=0x3:0x113 / me=umh / subme=6 / psy=1 / psy_rd=1.00:0.00 / mixed_ref=1 / me_range=16 / chroma_me=1 / trellis=0 / 8x8dct=1 / cqm=0 / deadzone=21,11 / fast_pskip=1 / chroma_qp_offset=-2 / threads=1 / sliced_threads=0 / nr=0 / decimate=1 / interlaced=0 / constrained_intra=0 / bframes=2 / b_pyramid=2 / b_adapt=2 / b_bias=0 / direct=2 / weightb=1 / open_gop=0 / weightp=0 / keyint=30 / keyint_min=16 / scenecut=0 / intra_refresh=0 / rc_lookahead=30 / rc=abr / mbtree=1 / bitrate=1800 / ratetol=1.0 / qcomp=0.60 / qpmin=1 / qpmax=31 / qpstep=4 / ip_ratio=1.41 / aq=1:1.00\nLanguage                                 : English\nEncoded date                             : UTC 1970-01-01 00:00:00\nTagged date                              : UTC 1970-01-01 00:00:00\n\nAudio\nID                                       : 2\nFormat                                   : AAC\nFormat/Info                              : Advanced Audio Codec\nFormat profile                           : LC\nCodec ID                                 : 40\nDuration                                 : 39mn 41s\nBit rate mode                            : Variable\nBit rate                                 : 103 Kbps\nChannel(s)                               : 2 channels\nChannel positions                        : Front: L R\nSampling rate                            : 44.1 KHz\nCompression mode                         : Lossy\nStream size                              : 29.1 MiB (5%)\nLanguage                                 : English\nEncoded date                             : UTC 1970-01-01 00:00:00\nTagged date                              : UTC 1970-01-01 00:00:00","torrent":{"xt":"urn:btih:463a0cf9a4cb90933a1a9aa73e268e0a55999e31","amp;dn":"Aidra+Fox+-+Super+Cute+2","amp;tr":["udp%3A%2F%2Ftracker.openbittorrent.com%3A80","udp%3A%2F%2Fopen.demonii.com%3A1337","udp%3A%2F%2Ftracker.coppersurfer.tk%3A6969","udp%3A%2F%2Fexodus.desync.com%3A6969"],"infoHash":"463a0cf9a4cb90933a1a9aa73e268e0a55999e31","infoHashBuffer":{"type":"Buffer","data":[70,58,12,249,164,203,144,147,58,26,154,167,62,38,142,10,85,153,158,49]},"announce":[],"urlList":[]}}